<svg xmlns="http://www.w3.org/2000/svg" viewBox="0 0 51.03 51.02"><defs><style>.cls-1{fill:#28abe3;}</style></defs><title>icon-repair-active</title><g id="Layer_2" data-name="Layer 2"><g id="Layer_1-2" data-name="Layer 1"><g id="icon-repair-active"><circle class="cls-1" cx="9.76" cy="41.26" r="1.79" transform="translate(-26.32 18.99) rotate(-45)"/><path class="cls-1" d="M50.34,10.06a1.72,1.72,0,0,0-2.85-.69L41,15.84,35.18,10l6.48-6.48A1.72,1.72,0,0,0,41,.68,14.51,14.51,0,0,0,36.56,0a14.44,14.44,0,0,0-14.3,16.49L1.82,36.94a6.22,6.22,0,0,0,0,8.79L5.3,49.21a6.23,6.23,0,0,0,8.79,0L34.53,28.76a14.62,14.62,0,0,0,2.05.15A14.44,14.44,0,0,0,50.34,10.06m-6,12.19a10.94,10.94,0,0,1-7.79,3.22,11.18,11.18,0,0,1-2.31-.24,1.72,1.72,0,0,0-1.64.54l-.14.18L11.66,46.78a2.86,2.86,0,0,1-3.93,0L4.25,43.3a2.79,2.79,0,0,1,0-3.93L25.07,18.54l.18-.14a1.72,1.72,0,0,0,.54-1.64A11,11,0,0,1,36.89,3.44L32.75,7.58a3.46,3.46,0,0,0,0,4.88l5.81,5.81a3.46,3.46,0,0,0,4.89,0l4.15-4.14a11,11,0,0,1-3.22,8.12"/><path class="cls-1" d="M50.34,10.06a1.72,1.72,0,0,0-2.85-.69L41,15.84,35.18,10l6.48-6.48A1.72,1.72,0,0,0,41,.68,14.51,14.51,0,0,0,36.56,0a14.44,14.44,0,0,0-14.3,16.49L1.82,36.94a6.22,6.22,0,0,0,0,8.79L5.3,49.21a6.23,6.23,0,0,0,8.79,0L34.53,28.76a14.62,14.62,0,0,0,2.05.15A14.44,14.44,0,0,0,50.34,10.06m-6,12.19a10.94,10.94,0,0,1-7.79,3.22,11.18,11.18,0,0,1-2.31-.24,1.72,1.72,0,0,0-1.64.54l-.14.18L11.66,46.78a2.86,2.86,0,0,1-3.93,0L4.25,43.3a2.79,2.79,0,0,1,0-3.93L25.07,18.54l.18-.14a1.72,1.72,0,0,0,.54-1.64A11,11,0,0,1,36.89,3.44L32.75,7.58a3.46,3.46,0,0,0,0,4.88l5.81,5.81a3.46,3.46,0,0,0,4.89,0l4.15-4.14a11,11,0,0,1-3.22,8.12"/></g></g></g></svg>