<svg xmlns="http://www.w3.org/2000/svg" viewBox="0 0 51.03 51.02"><defs><style>.cls-1{fill:#28abe3;}</style></defs><title>icon-cancel-active</title><g id="Layer_2" data-name="Layer 2"><g id="Layer_1-2" data-name="Layer 1"><path id="icon-cancel-active" class="cls-1" d="M42.4,51a8.56,8.56,0,0,1-6.1-2.52L25.51,37.7,14.72,48.5A8.62,8.62,0,1,1,2.53,36.31l10.79-10.8L2.53,14.72A8.62,8.62,0,0,1,14.72,2.52l10.8,10.8,10.8-10.8A8.62,8.62,0,1,1,48.5,14.72L37.71,25.51,48.5,36.31A8.62,8.62,0,0,1,42.4,51M25.51,32.53a2.14,2.14,0,0,1,1.51.63L39.34,45.47a4.34,4.34,0,0,0,6.13-6.13L33.16,27a2.14,2.14,0,0,1,0-3L45.47,11.69a4.34,4.34,0,0,0-6.13-6.13L27,17.86a2.14,2.14,0,0,1-3,0L11.69,5.55a4.34,4.34,0,0,0-6.13,6.13L17.86,24a2.14,2.14,0,0,1,0,3L5.56,39.34a4.34,4.34,0,0,0,6.13,6.13L24,33.16a2.14,2.14,0,0,1,1.51-.63"/></g></g></svg>