<svg xmlns="http://www.w3.org/2000/svg" viewBox="0 0 49.36 51.02"><defs><style>.cls-1{fill:#a1a1a1;}</style></defs><title>icon-calender</title><g id="Layer_2" data-name="Layer 2"><g id="Layer_1-2" data-name="Layer 1"><g id="icon-calender"><path class="cls-1" d="M47.45,5.93H41.34V5.08a5.08,5.08,0,0,0-10.16,0v.85h-13V5.08A5.08,5.08,0,0,0,8,5.08v.85H1.91A1.91,1.91,0,0,0,0,7.84V49.11A1.91,1.91,0,0,0,1.91,51H47.45a1.91,1.91,0,0,0,1.91-1.91V7.84a1.91,1.91,0,0,0-1.91-1.91M35,5.08a1.26,1.26,0,0,1,2.52,0v5.81a1.26,1.26,0,1,1-2.52,0Zm-23.16,0a1.26,1.26,0,0,1,2.52,0v5.81a1.26,1.26,0,1,1-2.52,0ZM8,9.75v1.14a5.08,5.08,0,1,0,10.16,0V9.75h13v1.14a5.08,5.08,0,1,0,10.16,0V9.75h4.2v8.13H3.82V9.75ZM3.82,20.27H45.54V47.2H3.82Z"/><path class="cls-1" d="M13.11,24.74H9.18a.32.32,0,0,0-.32.32v3.24a.32.32,0,0,0,.32.31h3.93a.32.32,0,0,0,.32-.31V25.05a.32.32,0,0,0-.32-.32"/><path class="cls-1" d="M22.14,24.74H18.21a.32.32,0,0,0-.32.32v3.24a.32.32,0,0,0,.32.31h3.93a.32.32,0,0,0,.32-.31V25.05a.32.32,0,0,0-.32-.32"/><path class="cls-1" d="M31.16,24.74H27.23a.32.32,0,0,0-.32.32v3.24a.32.32,0,0,0,.32.31h3.93a.32.32,0,0,0,.32-.31V25.05a.32.32,0,0,0-.32-.32"/><path class="cls-1" d="M40.18,24.74H36.25a.32.32,0,0,0-.32.32v3.24a.32.32,0,0,0,.32.31h3.93a.32.32,0,0,0,.32-.31V25.05a.32.32,0,0,0-.32-.32"/><path class="cls-1" d="M13.11,31.9H9.18a.32.32,0,0,0-.32.32v3.24a.32.32,0,0,0,.32.31h3.93a.32.32,0,0,0,.32-.31V32.21a.32.32,0,0,0-.32-.32"/><path class="cls-1" d="M22.14,31.9H18.21a.32.32,0,0,0-.32.32v3.24a.32.32,0,0,0,.32.31h3.93a.32.32,0,0,0,.32-.31V32.21a.32.32,0,0,0-.32-.32"/><path class="cls-1" d="M31.16,31.9H27.23a.32.32,0,0,0-.32.32v3.24a.32.32,0,0,0,.32.31h3.93a.32.32,0,0,0,.32-.31V32.21a.32.32,0,0,0-.32-.32"/><path class="cls-1" d="M40.18,31.9H36.25a.32.32,0,0,0-.32.32v3.24a.32.32,0,0,0,.32.31h3.93a.32.32,0,0,0,.32-.31V32.21a.32.32,0,0,0-.32-.32"/><path class="cls-1" d="M13.11,39.06H9.18a.32.32,0,0,0-.32.32v3.24a.32.32,0,0,0,.32.31h3.93a.32.32,0,0,0,.32-.31V39.37a.32.32,0,0,0-.32-.32"/><path class="cls-1" d="M22.14,39.06H18.21a.32.32,0,0,0-.32.32v3.24a.32.32,0,0,0,.32.31h3.93a.32.32,0,0,0,.32-.31V39.37a.32.32,0,0,0-.32-.32"/></g></g></g></svg>