<svg xmlns="http://www.w3.org/2000/svg" viewBox="0 0 49.32 51.02"><defs><style>.cls-1{fill:#a1a1a1;}</style></defs><title>Icon-my-account-inactive</title><g id="Layer_2" data-name="Layer 2"><g id="Layer_1-2" data-name="Layer 1"><g id="Icon-my-account-inactive"><path class="cls-1" d="M24.66,34.38C32.57,34.38,39,26.67,39,17.19S32.57,0,24.66,0,10.32,7.71,10.32,17.19s6.43,17.19,14.34,17.19m0-30.91c6,0,10.87,6.16,10.87,13.72S30.65,30.91,24.66,30.91,13.79,24.76,13.79,17.19,18.67,3.47,24.66,3.47"/><path class="cls-1" d="M47.74,39.65C45.3,34.53,41.24,31.54,36,31a1.73,1.73,0,0,0-.34,3.45c4.07.41,7,2.59,8.95,6.67,1.17,2.45,1.56,4.73,1,5.68-.31.49-1,.74-2.19.74H5.93c-1.14,0-1.88-.25-2.19-.74-.59-.94-.21-3.23,1-5.68,1.95-4.07,4.86-6.25,8.93-6.66A1.74,1.74,0,0,0,13.28,31C8.06,31.55,4,34.53,1.58,39.65c-1,2.18-2.52,6.24-.76,9C1.49,49.74,2.93,51,5.93,51H43.39c3,0,4.44-1.28,5.12-2.35,1.75-2.78.27-6.85-.77-9"/></g></g></g></svg>