<svg xmlns="http://www.w3.org/2000/svg" viewBox="0 0 65.76 48.19"><defs><style>.cls-1{fill:#28abe3;}</style></defs><title>icon-engineer-active</title><g id="Layer_2" data-name="Layer 2"><g id="Layer_1-2" data-name="Layer 1"><path id="icon-engineer-inactive" class="cls-1" d="M65.11,9.59a1.91,1.91,0,0,0-3.17-.77L56.1,14.66l-5-5,5.83-5.83A1.91,1.91,0,0,0,56.16.65,13.86,13.86,0,0,0,52,0a13.69,13.69,0,0,0-9.74,4,13.89,13.89,0,0,0-2.13,2.78l-.2,0H35.58l-.14-.51A6.14,6.14,0,0,0,29.31.43H20.69a6.14,6.14,0,0,0-6.13,5.86l-.14.51h-12A1.91,1.91,0,0,0,.48,8.6L0,17.19a1.9,1.9,0,0,0,.52,1.42,1.85,1.85,0,0,0,.35.29V36.05A1.91,1.91,0,0,0,2.79,38H17.64a6.16,6.16,0,0,0-.07.88,6.06,6.06,0,0,0,1.78,4.32l3.24,3.24a6.12,6.12,0,0,0,8.63,0l8.46-8.46.19,0h7.33a1.91,1.91,0,0,0,1.91-1.91V28.51l1.06-1.06a13.84,13.84,0,0,0,1.8.12,13.78,13.78,0,0,0,13.13-18m-46.73-3a2.32,2.32,0,0,1,2.31-2.31h8.62a2.32,2.32,0,0,1,2.31,2.31,1.94,1.94,0,0,0,0,.23H18.34a2,2,0,0,0,0-.23m20.19,4.05a13.76,13.76,0,0,0-.26,5l0,0h-9V13.24A1.19,1.19,0,0,0,28.06,12H21.94a1.19,1.19,0,0,0-1.19,1.19v2.38H3.92l.28-5ZM23.13,14.43h3.73v6.47H23.13ZM4.7,18h16V22.1a1.19,1.19,0,0,0,1.19,1.19h6.12a1.19,1.19,0,0,0,1.19-1.19V18h6.62L19.71,34.17l-.24,0H4.7ZM45.3,34.14H43.49l1.81-1.81ZM59,20.84a9.89,9.89,0,0,1-7,2.91,10.1,10.1,0,0,1-2.09-.22,1.92,1.92,0,0,0-1.84.61l-.13.16L28.53,43.7a2.35,2.35,0,0,1-3.23,0l-3.24-3.25a2.29,2.29,0,0,1,0-3.23L41.46,17.83l.17-.14a1.91,1.91,0,0,0,.59-1.82,10,10,0,0,1,9.3-12L48.19,7.16a3.53,3.53,0,0,0,0,5l5.41,5.41a3.62,3.62,0,0,0,5,0l3.33-3.33A9.93,9.93,0,0,1,59,20.84"/></g></g></svg>