<svg xmlns="http://www.w3.org/2000/svg" viewBox="0 0 58.55 51.02"><defs><style>.cls-1{fill:#a1a1a1;}</style></defs><title>icon-print</title><g id="Layer_2" data-name="Layer 2"><g id="Layer_1-2" data-name="Layer 1"><g id="icon-print"><path class="cls-1" d="M53.32,28.55H47.55V2a2,2,0,0,0-2-2H23.17a2,2,0,0,0-1.35.53L11.63,10.05A2,2,0,0,0,11,11.49V28.55H5.22A5.23,5.23,0,0,0,0,33.78v12A5.23,5.23,0,0,0,5.22,51h48.1a5.23,5.23,0,0,0,5.22-5.22v-12a5.23,5.23,0,0,0-5.22-5.22M21.56,6.18v4.75H16.48ZM15,14.87h8.58a2,2,0,0,0,2-2V4H43.6v24.6H15ZM54.6,45.8a1.29,1.29,0,0,1-1.27,1.27H5.22A1.29,1.29,0,0,1,4,45.8v-12A1.29,1.29,0,0,1,5.22,32.5h48.1a1.29,1.29,0,0,1,1.27,1.27Z"/><path class="cls-1" d="M47.45,37a2.79,2.79,0,1,0,2.79,2.8A2.8,2.8,0,0,0,47.45,37"/></g></g></g></svg>