<svg xmlns="http://www.w3.org/2000/svg" viewBox="0 0 51.02 51.02"><defs><style>.cls-1{fill:#28abe3;}</style></defs><title>icon-in-progress</title><g id="Layer_2" data-name="Layer 2"><g id="Layer_1-2" data-name="Layer 1"><g id="icon-in-progress"><path class="cls-1" d="M38.78,14.7h0A2.33,2.33,0,0,0,37,14a2.38,2.38,0,0,0-1.72.9L22.54,31l-7.08-6.34A2.33,2.33,0,0,0,13.65,24,2.37,2.37,0,0,0,12,25a2.59,2.59,0,0,0,.36,3.4l8.93,8a2.32,2.32,0,0,0,3.41-.3L39,18.1A2.6,2.6,0,0,0,38.78,14.7Z"/><path class="cls-1" d="M0,0V51H51V0ZM4.6,46.42V4.6H46.42V46.42Z"/></g></g></g></svg>