<svg xmlns="http://www.w3.org/2000/svg" viewBox="0 0 51.08 51.02"><defs><style>.cls-1{fill:#28abe3;}</style></defs><title>icon-minus</title><g id="Layer_2" data-name="Layer 2"><g id="Layer_1-2" data-name="Layer 1"><g id="icon-minus"><path class="cls-1" d="M44.25,8.14A24.46,24.46,0,0,0,26.63,0,25.54,25.54,0,0,0,7.24,43.35a25.27,25.27,0,0,0,18,7.68h.48A25.58,25.58,0,0,0,51,27,25,25,0,0,0,44.25,8.14Zm3.89,18.72A22.67,22.67,0,0,1,25.68,48.12H25.6a22.33,22.33,0,0,1-16.28-6.8A22.63,22.63,0,0,1,25.62,2.9l.89,0a21.66,21.66,0,0,1,15.61,7.2A22.13,22.13,0,0,1,48.14,26.85Z"/><path class="cls-1" d="M40.34,23.56H10.74a1.95,1.95,0,1,0,0,3.9H40.34a1.95,1.95,0,0,0,0-3.9Z"/></g></g></g></svg>