<svg xmlns="http://www.w3.org/2000/svg" viewBox="0 0 51.02 41.92"><defs><style>.cls-1{fill:#28abe3;}</style></defs><title>icon-check</title><g id="Layer_2" data-name="Layer 2"><g id="Layer_1-2" data-name="Layer 1"><path id="icon-check" class="cls-1" d="M49.69,1.27h0A4.25,4.25,0,0,0,46.44,0a4.33,4.33,0,0,0-3.13,1.64L20.1,30.89,7.21,19.34A4.25,4.25,0,0,0,3.9,18.25,4.31,4.31,0,0,0,.87,20a4.72,4.72,0,0,0,.65,6.2L17.78,40.81A4.23,4.23,0,0,0,24,40.27L50,7.46A4.73,4.73,0,0,0,49.69,1.27Z"/></g></g></svg>