<svg xmlns="http://www.w3.org/2000/svg" viewBox="0 0 57.47 51.02"><defs><style>.cls-1{fill:#28abe3;}</style></defs><title>icon-alert</title><g id="Layer_2" data-name="Layer 2"><g id="Layer_1-2" data-name="Layer 1"><g id="icon-alert"><path class="cls-1" d="M25.94,39.71a2.79,2.79,0,1,1,2.79,2.79,2.8,2.8,0,0,1-2.79-2.79m.21-21.11a2.39,2.39,0,0,1,2.58-2.43,2.43,2.43,0,0,1,2.58,2.43V32.38a2.43,2.43,0,0,1-2.58,2.43,2.39,2.39,0,0,1-2.58-2.43Z"/><path class="cls-1" d="M52.72,51h-48a4.74,4.74,0,0,1-4.1-7.11l24-41.55a4.74,4.74,0,0,1,8.21,0l24,41.55A4.74,4.74,0,0,1,52.72,51m-24-47.44a1.14,1.14,0,0,0-1,.58l-24,41.55a1.16,1.16,0,0,0,1,1.74h48a1.16,1.16,0,0,0,1-1.74l-24-41.55a1.14,1.14,0,0,0-1-.58"/></g></g></g></svg>